<?xml version="1.0" standalone="no"?>
<svg xmlns="http://www.w3.org/2000/svg" width="16" height="16"><rect width="16" height="16" opacity="0"></rect><g><path d="M8 1.66Q9.71 1.66 11.17 2.52Q12.62 3.38 13.48 4.83Q14.34 6.29 14.34 8Q14.34 9.71 13.48 11.17Q12.62 12.62 11.17 13.48Q9.71 14.34 8 14.34Q6.29 14.34 4.83 13.48Q3.38 12.62 2.52 11.17Q1.66 9.71 1.66 8Q1.66 6.29 2.52 4.83Q3.38 3.38 4.83 2.52Q6.29 1.66 8 1.66ZM8 0.67Q6 0.67 4.32 1.66Q2.64 2.64 1.66 4.32Q0.67 6 0.67 8Q0.67 9.98 1.66 11.67Q2.64 13.36 4.33 14.34Q6.02 15.33 8 15.33Q9.98 15.33 11.67 14.34Q13.36 13.36 14.34 11.67Q15.33 9.98 15.33 8Q15.33 6 14.34 4.32Q13.36 2.64 11.68 1.66Q10 0.67 8 0.67Z" fill="rgba(0,0,0,0.9019607843137255)"></path><path d="M10.85 5.86Q10.99 5.7 10.99 5.5Q10.99 5.3 10.85 5.15Q10.7 4.99 10.5 4.99Q10.29 4.99 10.14 5.15L8 7.3L5.86 5.15Q5.71 4.99 5.5 4.99Q5.3 4.99 5.15 5.15Q5.01 5.3 5.01 5.5Q5.01 5.7 5.15 5.86L7.3 8L5.15 10.14Q5.01 10.29 5.01 10.5Q5.01 10.7 5.15 10.85Q5.28 10.99 5.51 10.99Q5.74 10.99 5.86 10.85L8 8.7L10.14 10.85Q10.27 10.99 10.5 10.99Q10.74 10.99 10.85 10.85Q10.99 10.7 10.99 10.5Q10.99 10.29 10.85 10.14L8.7 8L10.85 5.86Z" fill="rgba(0,0,0,0.9019607843137255)"></path></g></svg>